<?xml version="1.0" encoding="UTF-8"?>
<svg xmlns="http://www.w3.org/2000/svg" xmlns:xlink="http://www.w3.org/1999/xlink" width="126px" height="32px" viewBox="0 0 126 32" version="1.1">
    
    <title>Components / Logo / On Dark</title>
    <desc>Created with Sketch.</desc>
    <g id="Page-1" stroke="none" stroke-width="1" fill="none" fill-rule="evenodd">
        <g id="Home-Page-Concept---Joe" transform="translate(-74.000000, -59.000000)">
            <g id="Header">
                <g id="Components-/-Logo-/-On-Dark" transform="translate(74.000000, 59.000000)">
                    <g id="us_bank_correctcolors-(1)">
                        <polyline id="Fill-1" fill="#DE162B" points="0 0.0750281748 0.0210531646 24.8715165 20.7370481 32.0163332 41.4520861 24.8715165 41.4520861 0.0750281748 0 0.0750281748"/>
                        <path d="M20.7038734,24.0914822 L14.3713367,24.0914822 L14.3713367,21.8726533 L14.3049873,21.8726533 C13.0762481,23.6212626 11.3199038,24.528392 8.70037975,24.528392 C5.61800506,24.528392 2.79847595,22.61388 2.79847595,18.6131319 L2.79847595,6.64581462 L9.36195949,6.64581462 L9.36195949,15.7866394 C9.36195949,17.8062556 9.59673418,19.2178849 11.5202278,19.2178849 C12.6465722,19.2178849 14.138157,18.6467652 14.138157,15.8561699 L14.138157,6.64581462 L20.7038734,6.64581462 L20.7038734,24.0914822" id="Fill-2" fill="#FFFFFE"/>
                        <path d="M32.9411848,11.7205651 C32.9089671,11.1504157 32.6103949,10.7138293 32.1762532,10.4085423 C31.7807089,10.0747962 31.2495949,9.90630625 30.719757,9.90630625 C29.7918228,9.90630625 28.7292759,10.1077828 28.7292759,11.250022 C28.7292759,11.7545218 29.1292861,11.9886615 29.4926127,12.1571515 C30.5867392,12.6293116 33.0748405,12.7619045 35.2640506,13.5021609 C37.4516658,14.208784 39.3748405,15.5201601 39.3748405,18.3773753 C39.3748405,23.2176627 34.7964152,24.528392 30.6199139,24.528392 C26.5748354,24.528392 22.1316608,22.8810061 22.0321367,18.3773753 L28.298643,18.3773753 C28.3334127,18.9821282 28.5962582,19.4872748 29.0932405,19.924508 C29.4259443,20.2268844 30.0559443,20.4273908 30.8518177,20.4273908 C31.7149975,20.4273908 33.0748405,20.0926746 33.0748405,19.0830282 C33.0748405,18.0740286 32.5092759,17.7726223 29.4588,17.235136 C24.4538886,16.3600229 22.4299139,14.7469171 22.4299139,11.7545218 C22.4299139,7.35082074 27.1065873,6.20858146 30.5535646,6.20858146 C34.2678532,6.20858146 38.7429266,7.25056758 38.909757,11.7205651 L32.9411848,11.7205651" id="Fill-3" fill="#FFFFFE"/>
                        <path d="M53.0038937,11.0495157 C50.6504051,11.0495157 50.1180152,13.3000376 50.1180152,15.3516701 C50.1180152,17.4362891 50.6504051,19.6893981 53.0038937,19.6893981 C55.3577013,19.6893981 55.8869013,17.4362891 55.8869013,15.3516701 C55.8869013,13.3000376 55.3577013,11.0495157 53.0038937,11.0495157 M43.7854785,0.087964067 L50.350557,0.087964067 L50.350557,8.55967987 L50.4169063,8.55967987 C51.4121468,7.08078399 53.1700861,6.20793467 55.1257975,6.20793467 C60.8956405,6.20793467 62.4535747,11.182432 62.4535747,15.2837566 C62.4535747,19.6547946 60.1007241,24.5277452 55.2269165,24.5277452 C52.0080152,24.5277452 51.0150076,23.2836358 50.1850025,22.1750298 L50.1180152,22.1750298 L50.1180152,24.0914822 L43.7854785,24.0914822 L43.7854785,0.087964067" id="Fill-4" fill="#FFFFFF"/>
                        <path d="M74.4593013,16.2604165 C73.6618329,16.6630461 72.7677114,16.898156 71.8719949,17.1002793 C70.4132658,17.4369359 69.6505671,17.8062556 69.6505671,18.982775 C69.6505671,19.7890045 70.5111949,20.5958808 71.7058025,20.5958808 C73.2018532,20.5958808 74.3581823,19.6900449 74.4593013,17.8735223 L74.4593013,16.2604165 Z M80.7599392,20.1909873 C80.7599392,21.5030102 80.8234177,22.9841699 81.5558127,24.092129 L74.8551646,24.092129 C74.6905671,23.6212626 74.5939139,22.9162564 74.6242177,22.4447432 L74.5591443,22.4447432 C73.1658076,24.0584957 71.1427899,24.528392 69.0208861,24.528392 C65.7050127,24.528392 62.9527899,22.9162564 62.9527899,19.2492544 C62.9527899,13.7395345 69.3188203,13.9400408 72.6694633,13.3000376 C73.5639038,13.1315476 74.4593013,12.8650682 74.4593013,11.7545218 C74.4593013,10.5776791 73.3626228,10.1404459 72.3026278,10.1404459 C70.2802481,10.1404459 69.8840658,11.182432 69.8483392,11.9213949 L63.7493013,11.9213949 C63.9483494,7.01481094 68.5239038,6.20858146 72.600562,6.20858146 C80.8234177,6.20858146 80.7599392,9.66957942 80.7599392,13.0322646 L80.7599392,20.1909873 Z" id="Fill-5" fill="#FFFFFF"/>
                        <path d="M83.1115139,6.64678481 L89.4440506,6.64678481 L89.4440506,8.86367334 L89.5091241,8.86367334 C90.7385013,7.1157109 92.4929316,6.20858146 95.1134127,6.20858146 C98.1957873,6.20858146 101.016911,8.1234169 101.016911,12.1235182 L101.016911,24.092129 L94.450238,24.092129 L94.450238,14.9490404 C94.450238,12.9310412 94.2180152,11.519412 92.2967544,11.519412 C91.1688152,11.519412 89.6765924,12.0905316 89.6765924,14.881127 L89.6765924,24.092129 L83.1115139,24.092129 L83.1115139,6.64678481" id="Fill-6" fill="#FFFFFF"/>
                        <polyline id="Fill-7" fill="#FFFFFF" points="103.339458 0.087964067 109.901666 0.087964067 109.901666 11.687902 114.08359 6.64678481 121.507701 6.64678481 115.374851 13.2334177 122.471362 24.0914822 114.580572 24.0914822 111.064375 17.7732691 109.901666 19.0484247 109.901666 24.0914822 103.339458 24.0914822 103.339458 0.087964067"/>
                        <path d="M123.885114,23.4576235 L124.171884,23.4576235 L124.171884,22.8053312 L124.398365,22.8053312 C124.549565,22.8053312 124.65802,22.8221478 124.718628,22.8596619 C124.821342,22.919167 124.873975,23.0462621 124.873975,23.2370666 L124.873975,23.3686893 L124.878759,23.4223732 L124.881949,23.4404835 L124.884501,23.4576235 L125.153408,23.4576235 L125.146071,23.4369261 L125.130759,23.3502556 L125.127889,23.2270412 L125.127889,23.1060906 C125.127889,23.0233009 125.096309,22.9369539 125.037296,22.8496366 C124.978284,22.7632895 124.883225,22.7079886 124.756268,22.6889081 C124.857387,22.6727383 124.937453,22.6446027 124.994871,22.6077354 C125.100456,22.5388518 125.150218,22.4279265 125.150218,22.2814275 C125.150218,22.0731597 125.069195,21.9324818 124.899813,21.8619812 C124.804435,21.8244671 124.65802,21.8047399 124.454506,21.8047399 L123.885114,21.8047399 L123.885114,23.4576235 Z M124.703316,22.5656938 C124.643347,22.5876848 124.55403,22.6015909 124.427073,22.6015909 L124.171884,22.6015909 L124.171884,22.0029824 L124.419418,22.0029824 C124.573489,22.0029824 124.689919,22.0220629 124.7652,22.0641045 C124.836334,22.1038824 124.873975,22.1866721 124.873975,22.3060057 C124.873975,22.4324541 124.813686,22.5204181 124.703316,22.5656938 Z M125.535554,21.571247 C125.244,21.2795427 124.895347,21.1317501 124.48162,21.1317501 C124.07523,21.1317501 123.724982,21.2795427 123.436299,21.571247 C123.146339,21.8665088 122.999924,22.2186884 122.999924,22.6352242 C122.999924,23.0524067 123.144744,23.4084671 123.433428,23.7030821 C123.720197,23.999314 124.072359,24.1464598 124.48162,24.1464598 C124.895347,24.1464598 125.244,23.999314 125.535554,23.7030821 C125.827109,23.4078203 125.973524,23.0524067 125.973524,22.6352242 C125.973524,22.2173949 125.827109,21.8652152 125.535554,21.571247 Z M125.387863,21.7164524 C125.638268,21.9699959 125.760759,22.2762532 125.760759,22.6352242 C125.760759,22.996459 125.638268,23.3036864 125.387863,23.5594937 C125.14001,23.812067 124.839524,23.9404557 124.48162,23.9404557 C124.125311,23.9404557 123.826101,23.812067 123.579843,23.5594937 C123.33199,23.3036864 123.208542,22.996459 123.208542,22.6352242 C123.208542,22.2762532 123.33199,21.9699959 123.579843,21.7164524 C123.828972,21.4632323 124.131053,21.3329032 124.48162,21.3329032 C124.836334,21.3329032 125.138415,21.4632323 125.387863,21.7164524 Z" id="Fill-8" fill="#FFFFFF"/>
                    </g>
                </g>
            </g>
        </g>
    </g>
</svg>
